<svg version="1.1" id="Layer_1" xmlns="http://www.w3.org/2000/svg" xmlns:xlink="http://www.w3.org/1999/xlink" x="0px" y="0px"
 viewBox="0 0 4 7" style="enable-background:new 0 0 4 7;" xml:space="preserve">
<style type="text/css">
.st0{fill:#7C7F82;}
</style>
<path class="st0" d="M3.3,3.9l0.4-0.4c0,0,0,0,0,0L3.4,3.1C3.3,3,3.1,3,3,3.1L2.6,3.5l0.3,0.3C3,4,3.2,4,3.3,3.9z"/>
<path class="st0" d="M3.4,3.1l0.4,0.4c0.1-0.1,0.1-0.3,0-0.4c0,0,0,0,0,0L1,0.1C0.9,0,0.7,0,0.5,0.1L0.1,0.5C0,0.6,0,0.8,0.1,0.9
l0,0l2.5,2.6L3,3.1C3.1,3,3.3,3,3.4,3.1z"/>
<path class="st0" d="M3.9,3.5L3.9,3.5C3.8,3.5,3.8,3.5,3.9,3.5L3.3,3.9C3.2,4,3,4,2.9,3.9L2.6,3.5L0.1,6.1l0,0c0,0,0,0,0,0
C0,6.2,0,6.4,0.1,6.5l0.4,0.4C0.7,7,0.9,7,1,6.9l2.8-3c0,0,0,0,0,0C4,3.8,4,3.6,3.9,3.5z"/>
</svg>