<svg id="Layer_1" data-name="Layer 1" xmlns="http://www.w3.org/2000/svg" width="149.77" height="41" viewBox="0 0 149.77 41"><defs><style>.cls-1{fill:#fff}</style></defs><title>launch-logo</title><path class="cls-1" d="M405.18 405.67a33.49 33.49 0 0 0-4.42.8 24.51 24.51 0 0 0-10.33 5.41 147.23 147.23 0 0 0-9.76 11c-.71.87-1.33 1.6-1.38 1.61s-1.61 0-3.48 0h-3.62a47.09 47.09 0 0 0-4.07 5.19c0 .12.06.12 3.6.88l2.38.51.09.4c.09.4.08.42-.47 1.68s-.54 1.3-.47 1.59c.39 1.44 3.93 5 5.37 5.37.29.07.4 0 1.59-.47s1.29-.55 1.69-.48l.41.07.64 3c.53 2.48.66 3 .78 3s4.78-3.52 5.12-3.9c.15-.17.15-.32.1-3.78v-3.61l1.62-1.33a145.26 145.26 0 0 0 11.05-9.8 23.93 23.93 0 0 0 4.81-8.48 30 30 0 0 0 1.45-7.72v-1.15H407c-.43.09-1.26.14-1.82.21zm-8.71 9.25a3.28 3.28 0 0 1 1.87 1.69 3.24 3.24 0 1 1-1.87-1.7zM370.32 436a8.35 8.35 0 0 0-1.84 2.43 15.17 15.17 0 0 0-1.59 6.6c-.09 1.61-.16 1.53 1.33 1.46 4.21-.19 7-1.24 9.11-3.39a6 6 0 0 0 .79-.91.89.89 0 0 0-.36-.29l-.36-.19-.28.2a11.65 11.65 0 0 1-6.39 1.8h-1.09v-1.05a12.09 12.09 0 0 1 1.63-6.16l.36-.56-.19-.35a.79.79 0 0 0-.28-.35 5.64 5.64 0 0 0-.84.76z" transform="translate(-366.85 -405.54)"/><g><path class="cls-1" d="M418.24 435.48l.76-.48 1.21-.8 1.5-1 1.59-1.12.13-1.13a38.85 38.85 0 0 1 1.18-6.4 33.6 33.6 0 0 1 1.92-5.26 24.12 24.12 0 0 1 2.41-4.11 18.75 18.75 0 0 1 2.66-2.95 10.79 10.79 0 0 1 2.67-1.78 6.08 6.08 0 0 1 2.47-.59 3.67 3.67 0 0 1 1.53.32 3.17 3.17 0 0 1 1.2.95 4.68 4.68 0 0 1 .78 1.58 7.76 7.76 0 0 1 .28 2.21 12.24 12.24 0 0 1-.46 3.24 19.15 19.15 0 0 1-1.32 3.42 27.12 27.12 0 0 1-2.05 3.44 32.31 32.31 0 0 1-2.65 3.31 33.11 33.11 0 0 1-3.14 3 29 29 0 0 1-3.49 2.53q0 1-.06 1.6t0 .9v.6a.63.63 0 0 0 .06.27.42.42 0 0 0 .23.2 1.88 1.88 0 0 0 .47.12 5.93 5.93 0 0 0 .8 0 7.7 7.7 0 0 0 2-.37l5.56-1.59h.52a1.52 1.52 0 0 1 .71.16 1.48 1.48 0 0 1 .5.42 1.86 1.86 0 0 1 .3.61 2.59 2.59 0 0 1 .1.71 2.13 2.13 0 0 1-.1.65 2 2 0 0 1-.3.59 1.94 1.94 0 0 1-.5.47 1.76 1.76 0 0 1-.7.27q-1.63.65-3.32 1.16-.73.22-1.54.42t-1.64.37q-.84.16-1.69.26a14.28 14.28 0 0 1-1.65.1 4.23 4.23 0 0 1-2-.42 3.26 3.26 0 0 1-1.25-1.15 4.78 4.78 0 0 1-.64-1.67 10.57 10.57 0 0 1-.18-2q-1.43 1-2.42 1.66a3.73 3.73 0 0 1-1.28.61.89.89 0 0 1-.54-.19 2.1 2.1 0 0 1-.47-.51 2.69 2.69 0 0 1-.34-.71 2.52 2.52 0 0 1-.12-.77 2.63 2.63 0 0 1 .07-.62.81.81 0 0 1 .24-.53zm9.43-5.83q.85-.88 1.77-1.92t1.83-2.17q.9-1.14 1.74-2.32t1.51-2.37a20 20 0 0 0 1.13-2.29 8.58 8.58 0 0 0 .59-2.11q0-.33.07-.64v-.57a2.8 2.8 0 0 0-.26-1.38.79.79 0 0 0-.71-.43 2.16 2.16 0 0 0-1.25.56 8.55 8.55 0 0 0-1.49 1.59 20 20 0 0 0-1.58 2.49 26.22 26.22 0 0 0-1.48 3.25 32.09 32.09 0 0 0-1.19 3.9 29.87 29.87 0 0 0-.68 4.41z" transform="translate(-366.85 -405.54)"/><path class="cls-1" d="M456.79 436.84a15.48 15.48 0 0 1-1 1.25 12.55 12.55 0 0 1-1.44 1.36 9 9 0 0 1-1.71 1.1 4.11 4.11 0 0 1-1.83.45 2.52 2.52 0 0 1-1.83-.71 5.74 5.74 0 0 1-1.26-2 8.12 8.12 0 0 1-1 .95 8.7 8.7 0 0 1-1.27.87 8.08 8.08 0 0 1-1.44.64 4.7 4.7 0 0 1-1.49.25 3.9 3.9 0 0 1-1.55-.32 4 4 0 0 1-1.34-.93 4.53 4.53 0 0 1-.93-1.48 5.26 5.26 0 0 1-.35-2 9.93 9.93 0 0 1 .35-2.56 14 14 0 0 1 1-2.57 14.56 14.56 0 0 1 1.45-2.37 11.62 11.62 0 0 1 1.83-1.94 9 9 0 0 1 2.1-1.32 5.5 5.5 0 0 1 2.25-.49 1 1 0 0 1 .6.15 1.51 1.51 0 0 1 .36.34l.27.37a.77.77 0 0 0 .33.27 1.51 1.51 0 0 0 .41.11h1.17a2.07 2.07 0 0 1 .46 0 .79.79 0 0 1 .38.22 1.1 1.1 0 0 1 .26.46 2.9 2.9 0 0 1 .09.81 10.6 10.6 0 0 1-.17 1.77q-.17 1-.37 2t-.37 2a12.06 12.06 0 0 0-.17 1.93 4.15 4.15 0 0 0 .14 1.22.58.58 0 0 0 .61.44 1.76 1.76 0 0 0 .73-.17 4.53 4.53 0 0 0 .77-.46 8.88 8.88 0 0 0 .78-.64q.39-.36.74-.74a25.54 25.54 0 0 0 1.64-2zm-14.18-1.31a5.41 5.41 0 0 0 .06.8 2.37 2.37 0 0 0 .21.7 1.37 1.37 0 0 0 .4.5 1 1 0 0 0 .63.19 1.5 1.5 0 0 0 1.11-.53 5.19 5.19 0 0 0 .86-1.28 9.17 9.17 0 0 0 .59-1.54 9.41 9.41 0 0 0 .29-1.33l1-4.88a2.82 2.82 0 0 0-1.33.34 5 5 0 0 0-1.22.92 8.25 8.25 0 0 0-1.05 1.33 10.33 10.33 0 0 0-.83 1.57 9.88 9.88 0 0 0-.54 1.65 7 7 0 0 0-.18 1.56z" transform="translate(-366.85 -405.54)"/><path class="cls-1" d="M467.25 426a10.09 10.09 0 0 1-.1 1.22q-.1.77-.26 1.69t-.34 1.9l-.34 1.83q-.16.85-.26 1.49a6.86 6.86 0 0 0-.1.89v.85a2.91 2.91 0 0 0 .1.68.93.93 0 0 0 .26.45.73.73 0 0 0 .51.16 2.78 2.78 0 0 0 .89-.18 8.51 8.51 0 0 0 1.11-.49q.59-.31 1.2-.7t1.17-.82q.56-.43 1-.86a6.75 6.75 0 0 0 .74-.79v3.69a9.33 9.33 0 0 1-.9.78q-.54.41-1.2.83t-1.39.8a15.28 15.28 0 0 1-1.49.67 11.25 11.25 0 0 1-1.48.46 5.89 5.89 0 0 1-1.36.17 2.19 2.19 0 0 1-1.08-.25 2.37 2.37 0 0 1-.77-.7 4.32 4.32 0 0 1-.55-1.07 11 11 0 0 1-.39-1.39 13.78 13.78 0 0 1-1.26 1.44 10.5 10.5 0 0 1-1.35 1.14 6.62 6.62 0 0 1-1.39.75 3.78 3.78 0 0 1-1.37.27 2.87 2.87 0 0 1-1-.18 2.12 2.12 0 0 1-.85-.61 3.1 3.1 0 0 1-.59-1.14 6.06 6.06 0 0 1-.22-1.75 22 22 0 0 1 .31-3.25q.31-2 .76-4.52 0-.25.12-.67t.25-.92a9.12 9.12 0 0 1 .39-1 4.77 4.77 0 0 1 .55-.93 2.77 2.77 0 0 1 .74-.68 1.87 1.87 0 0 1 1-.28 3.33 3.33 0 0 1 1.26.22.56.56 0 0 1 .38.47q-.15.88-.32 2t-.36 2.17l-.35 2.13-.3 1.85-.21 1.31q-.08.5-.07.51a2.73 2.73 0 0 0 .06.57 1.82 1.82 0 0 0 .17.49 1 1 0 0 0 .3.35.71.71 0 0 0 .43.13 1.66 1.66 0 0 0 .7-.18 2.62 2.62 0 0 0 .72-.55 3.68 3.68 0 0 0 .61-.88 4.63 4.63 0 0 0 .4-1.19l1.64-8.43a1.05 1.05 0 0 1 .67-.67 3.13 3.13 0 0 1 1.34-.27 2.6 2.6 0 0 1 1.34.3.88.88 0 0 1 .53.69z" transform="translate(-366.85 -405.54)"/><path class="cls-1" d="M470.8 437.44q0-1.1.13-2.53t.33-2.92q.2-1.49.45-2.86t.48-2.36a2.61 2.61 0 0 1 .71-1.28 1.94 1.94 0 0 1 1.42-.51 1.36 1.36 0 0 1 1.25.55 2.69 2.69 0 0 1 .35 1.46 6.07 6.07 0 0 1 0 .67c0 .28-.08.59-.12.93l-.16 1c-.06.36-.11.69-.16 1s-.09.57-.12.8a4 4 0 0 0 0 .46h.33l.32-.59.5-.94.61-1.12.61-1.13q.28-.54.51-1l.35-.61a3 3 0 0 1 1.21-1.23 3.4 3.4 0 0 1 1.51-.33 1.53 1.53 0 0 1 1.32.7 3.31 3.31 0 0 1 .49 1.93 4 4 0 0 1-.08.61c0 .29-.11.63-.19 1l-.26 1.31q-.14.71-.26 1.46t-.33 1.58q-.07.73-.07 1.34a4.73 4.73 0 0 0 .26 1.69.86.86 0 0 0 .8.66 1.39 1.39 0 0 0 .57-.15 5.54 5.54 0 0 0 .7-.39 8.61 8.61 0 0 0 .76-.56l.77-.65q.88-.78 1.84-1.76l.37 3.73-.83.63-1.39 1a12.32 12.32 0 0 1-1.47.92 9 9 0 0 1-1.59.66 5.85 5.85 0 0 1-1.74.26 1.83 1.83 0 0 1-1.54-1.32 9.34 9.34 0 0 1-.62-3.86 18.81 18.81 0 0 1 .13-2.15q.13-1.15.33-2.48H479l-4.35 8.63a2.14 2.14 0 0 1-.75.93 1.83 1.83 0 0 1-1 .25 1.87 1.87 0 0 1-1.1-.29 1.9 1.9 0 0 1-.64-.78 3.78 3.78 0 0 1-.3-1.11 11 11 0 0 1-.06-1.25z" transform="translate(-366.85 -405.54)"/><path class="cls-1" d="M491.32 440.91a6 6 0 0 1-2.68-.56 5.74 5.74 0 0 1-1.93-1.51 6.53 6.53 0 0 1-1.18-2.19 8.45 8.45 0 0 1-.4-2.59 10.74 10.74 0 0 1 .2-2 11.66 11.66 0 0 1 .59-2.05 11.21 11.21 0 0 1 1-1.92 7.66 7.66 0 0 1 1.33-1.6 6.13 6.13 0 0 1 1.68-1.1 5.05 5.05 0 0 1 2-.41 5.14 5.14 0 0 1 1.75.29 4.14 4.14 0 0 1 1.38.81 3.67 3.67 0 0 1 .9 1.22 3.59 3.59 0 0 1 .32 1.52 4.21 4.21 0 0 1-.15 1.11 3.38 3.38 0 0 1-.44 1 2.37 2.37 0 0 1-.71.71 1.69 1.69 0 0 1-.93.27 1.09 1.09 0 0 1-1-.42 2.29 2.29 0 0 1-.24-1.15v-.63-.6a2.25 2.25 0 0 0-.08-.66.35.35 0 0 0-.37-.27 2 2 0 0 0-1.16.32 2.93 2.93 0 0 0-.82.85 4.62 4.62 0 0 0-.54 1.18 11.38 11.38 0 0 0-.32 1.3 10.42 10.42 0 0 0-.15 1.24v1a7.65 7.65 0 0 0 .11 1.25 3.68 3.68 0 0 0 .41 1.19 2.62 2.62 0 0 0 .81.9 2.28 2.28 0 0 0 1.33.36 3.93 3.93 0 0 0 1.76-.49 12.36 12.36 0 0 0 1.93-1.24 17.74 17.74 0 0 0 1.85-1.64 21.5 21.5 0 0 0 1.51-1.69l1.15 1.93a21.69 21.69 0 0 1-2.69 3.17 16.4 16.4 0 0 1-1.34 1.16 11.76 11.76 0 0 1-1.51 1 9 9 0 0 1-1.64.71 5.66 5.66 0 0 1-1.73.23z" transform="translate(-366.85 -405.54)"/><path class="cls-1" d="M504.14 430.58q.68-.9 1.53-1.93a23.6 23.6 0 0 1 1.76-1.92 12.19 12.19 0 0 1 1.82-1.48 3.16 3.16 0 0 1 1.7-.59 1.58 1.58 0 0 1 .45.07 1.25 1.25 0 0 1 .47.27 1.5 1.5 0 0 1 .37.56 2.42 2.42 0 0 1 .15.92 7.75 7.75 0 0 1-.32 2.2q-.31 1.07-.69 2.14t-.68 2.18a8.72 8.72 0 0 0-.31 2.32 2.39 2.39 0 0 0 .2 1.06.59.59 0 0 0 .51.4 2.45 2.45 0 0 0 .85-.17 5.52 5.52 0 0 0 .9-.43 8 8 0 0 0 .88-.61q.43-.34.81-.71a19 19 0 0 0 1.79-1.93l.28 4.42-.75.58q-.46.35-1 .74t-1.2.79a13 13 0 0 1-1.3.71 9.8 9.8 0 0 1-1.31.51 4.3 4.3 0 0 1-1.25.2 2.61 2.61 0 0 1-1.58-.49 3.92 3.92 0 0 1-1.1-1.25 6.23 6.23 0 0 1-.65-1.65 7.26 7.26 0 0 1-.22-1.69 5.66 5.66 0 0 1 .14-1.19q.14-.65.35-1.32t.46-1.29q.26-.63.48-1.13c.15-.33.28-.6.39-.81a2.27 2.27 0 0 1 .22-.37h-.35a6.27 6.27 0 0 0-1 .93q-.67.75-1.52 1.88t-1.72 2.5a28.87 28.87 0 0 0-1.63 2.93q-.36.75-.6 1.3a6.22 6.22 0 0 1-.46.91 1.8 1.8 0 0 1-.49.54 1.35 1.35 0 0 1-1.54-.13 2 2 0 0 1-.48-.84 5.24 5.24 0 0 1-.22-1.19v-1.36-2.91q0-1.8.16-4 .13-2.19.38-4.62t.71-4.79a39 39 0 0 1 1.14-4.52 17.85 17.85 0 0 1 1.68-3.79 8.7 8.7 0 0 1 2.32-2.6 5.07 5.07 0 0 1 3.05-1 3.52 3.52 0 0 1 1.47.27 2.25 2.25 0 0 1 .91.75 3 3 0 0 1 .47 1.15 7.76 7.76 0 0 1 .13 1.5 12.07 12.07 0 0 1-.35 2.72 28.61 28.61 0 0 1-.92 3.1q-.57 1.61-1.3 3.26t-1.49 3.2q-.76 1.55-1.5 2.93l-1.3 2.42zm1.48-10.26A38.64 38.64 0 0 0 507 416a11.8 11.8 0 0 0 .44-2.57q0-1.26-.33-1.26t-1.28 1.41a35.16 35.16 0 0 0-2 4.1q-.28.91-.52 1.89t-.43 2q-.19 1-.35 1.91t-.27 1.79q-.28 2-.43 3.87l1-2.27 1-2.43 1-2.27q.49-1.1.79-1.85z" transform="translate(-366.85 -405.54)"/></g></svg>